<svg width="89" height="18" viewBox="0 0 89 18" fill="none" xmlns="http://www.w3.org/2000/svg">
<path d="M3.9 13.065L0.855 9.75L3.9 6.435H7.125L4.065 9.75L7.125 13.065H3.9ZM14.9067 0.749999L10.8867 17.805H8.41172L12.4317 0.749999H14.9067ZM18.5536 8.025C18.8536 7.565 19.2286 7.205 19.6786 6.945C20.1286 6.675 20.6286 6.54 21.1786 6.54V9.255H20.4736C19.8336 9.255 19.3536 9.395 19.0336 9.675C18.7136 9.945 18.5536 10.425 18.5536 11.115V15H15.9886V6.63H18.5536V8.025ZM30.2946 10.68C30.2946 10.92 30.2796 11.17 30.2496 11.43H24.4446C24.4846 11.95 24.6496 12.35 24.9396 12.63C25.2396 12.9 25.6046 13.035 26.0346 13.035C26.6746 13.035 27.1196 12.765 27.3696 12.225H30.0996C29.9596 12.775 29.7046 13.27 29.3346 13.71C28.9746 14.15 28.5196 14.495 27.9696 14.745C27.4196 14.995 26.8046 15.12 26.1246 15.12C25.3046 15.12 24.5746 14.945 23.9346 14.595C23.2946 14.245 22.7946 13.745 22.4346 13.095C22.0746 12.445 21.8946 11.685 21.8946 10.815C21.8946 9.945 22.0696 9.185 22.4196 8.535C22.7796 7.885 23.2796 7.385 23.9196 7.035C24.5596 6.685 25.2946 6.51 26.1246 6.51C26.9346 6.51 27.6546 6.68 28.2846 7.02C28.9146 7.36 29.4046 7.845 29.7546 8.475C30.1146 9.105 30.2946 9.84 30.2946 10.68ZM27.6696 10.005C27.6696 9.565 27.5196 9.215 27.2196 8.955C26.9196 8.695 26.5446 8.565 26.0946 8.565C25.6646 8.565 25.2996 8.69 24.9996 8.94C24.7096 9.19 24.5296 9.545 24.4596 10.005H27.6696ZM34.2128 7.815C34.4528 7.425 34.7978 7.11 35.2478 6.87C35.6978 6.63 36.2128 6.51 36.7928 6.51C37.4828 6.51 38.1078 6.685 38.6678 7.035C39.2278 7.385 39.6678 7.885 39.9878 8.535C40.3178 9.185 40.4828 9.94 40.4828 10.8C40.4828 11.66 40.3178 12.42 39.9878 13.08C39.6678 13.73 39.2278 14.235 38.6678 14.595C38.1078 14.945 37.4828 15.12 36.7928 15.12C36.2028 15.12 35.6878 15.005 35.2478 14.775C34.8078 14.535 34.4628 14.22 34.2128 13.83V15H31.6478V3.9H34.2128V7.815ZM37.8728 10.8C37.8728 10.16 37.6928 9.66 37.3328 9.3C36.9828 8.93 36.5478 8.745 36.0278 8.745C35.5178 8.745 35.0828 8.93 34.7228 9.3C34.3728 9.67 34.1978 10.175 34.1978 10.815C34.1978 11.455 34.3728 11.96 34.7228 12.33C35.0828 12.7 35.5178 12.885 36.0278 12.885C36.5378 12.885 36.9728 12.7 37.3328 12.33C37.6928 11.95 37.8728 11.44 37.8728 10.8ZM45.6384 15.12C44.8184 15.12 44.0784 14.945 43.4184 14.595C42.7684 14.245 42.2534 13.745 41.8734 13.095C41.5034 12.445 41.3184 11.685 41.3184 10.815C41.3184 9.955 41.5084 9.2 41.8884 8.55C42.2684 7.89 42.7884 7.385 43.4484 7.035C44.1084 6.685 44.8484 6.51 45.6684 6.51C46.4884 6.51 47.2284 6.685 47.8884 7.035C48.5484 7.385 49.0684 7.89 49.4484 8.55C49.8284 9.2 50.0184 9.955 50.0184 10.815C50.0184 11.675 49.8234 12.435 49.4334 13.095C49.0534 13.745 48.5284 14.245 47.8584 14.595C47.1984 14.945 46.4584 15.12 45.6384 15.12ZM45.6384 12.9C46.1284 12.9 46.5434 12.72 46.8834 12.36C47.2334 12 47.4084 11.485 47.4084 10.815C47.4084 10.145 47.2384 9.63 46.8984 9.27C46.5684 8.91 46.1584 8.73 45.6684 8.73C45.1684 8.73 44.7534 8.91 44.4234 9.27C44.0934 9.62 43.9284 10.135 43.9284 10.815C43.9284 11.485 44.0884 12 44.4084 12.36C44.7384 12.72 45.1484 12.9 45.6384 12.9ZM55.1892 15.12C54.3692 15.12 53.6292 14.945 52.9692 14.595C52.3192 14.245 51.8042 13.745 51.4242 13.095C51.0542 12.445 50.8692 11.685 50.8692 10.815C50.8692 9.955 51.0592 9.2 51.4392 8.55C51.8192 7.89 52.3392 7.385 52.9992 7.035C53.6592 6.685 54.3992 6.51 55.2192 6.51C56.0392 6.51 56.7792 6.685 57.4392 7.035C58.0992 7.385 58.6192 7.89 58.9992 8.55C59.3792 9.2 59.5692 9.955 59.5692 10.815C59.5692 11.675 59.3742 12.435 58.9842 13.095C58.6042 13.745 58.0792 14.245 57.4092 14.595C56.7492 14.945 56.0092 15.12 55.1892 15.12ZM55.1892 12.9C55.6792 12.9 56.0942 12.72 56.4342 12.36C56.7842 12 56.9592 11.485 56.9592 10.815C56.9592 10.145 56.7892 9.63 56.4492 9.27C56.1192 8.91 55.7092 8.73 55.2192 8.73C54.7192 8.73 54.3042 8.91 53.9742 9.27C53.6442 9.62 53.4792 10.135 53.4792 10.815C53.4792 11.485 53.6392 12 53.9592 12.36C54.2892 12.72 54.6992 12.9 55.1892 12.9ZM65.595 12.825V15H64.29C63.36 15 62.635 14.775 62.115 14.325C61.595 13.865 61.335 13.12 61.335 12.09V8.76H60.315V6.63H61.335V4.59H63.9V6.63H65.58V8.76H63.9V12.12C63.9 12.37 63.96 12.55 64.08 12.66C64.2 12.77 64.4 12.825 64.68 12.825H65.595ZM66.4988 6.435V4.05H70.6538V15H67.9838V6.435H66.4988ZM72.4984 7.14C72.5384 6.07 72.8884 5.245 73.5484 4.665C74.2084 4.085 75.1034 3.795 76.2334 3.795C76.9834 3.795 77.6234 3.925 78.1534 4.185C78.6934 4.445 79.0984 4.8 79.3684 5.25C79.6484 5.7 79.7884 6.205 79.7884 6.765C79.7884 7.425 79.6234 7.965 79.2934 8.385C78.9634 8.795 78.5784 9.075 78.1384 9.225V9.285C78.7084 9.475 79.1584 9.79 79.4884 10.23C79.8184 10.67 79.9834 11.235 79.9834 11.925C79.9834 12.545 79.8384 13.095 79.5484 13.575C79.2684 14.045 78.8534 14.415 78.3034 14.685C77.7634 14.955 77.1184 15.09 76.3684 15.09C75.1684 15.09 74.2084 14.795 73.4884 14.205C72.7784 13.615 72.4034 12.725 72.3634 11.535H74.8534C74.8634 11.975 74.9884 12.325 75.2284 12.585C75.4684 12.835 75.8184 12.96 76.2784 12.96C76.6684 12.96 76.9684 12.85 77.1784 12.63C77.3984 12.4 77.5084 12.1 77.5084 11.73C77.5084 11.25 77.3534 10.905 77.0434 10.695C76.7434 10.475 76.2584 10.365 75.5884 10.365H75.1084V8.28H75.5884C76.0984 8.28 76.5084 8.195 76.8184 8.025C77.1384 7.845 77.2984 7.53 77.2984 7.08C77.2984 6.72 77.1984 6.44 76.9984 6.24C76.7984 6.04 76.5234 5.94 76.1734 5.94C75.7934 5.94 75.5084 6.055 75.3184 6.285C75.1384 6.515 75.0334 6.8 75.0034 7.14H72.4984ZM81.7604 6.435H84.9854L88.0304 9.75L84.9854 13.065H81.7604L84.8204 9.75L81.7604 6.435Z" fill="#5E3AEE"/>
</svg>
